<svg id="svg" version="1.1" xmlns="http://www.w3.org/2000/svg" xmlns:xlink="http://www.w3.org/1999/xlink" width="400" height="400" viewBox="0, 0, 400,400"><g id="svgg"><path id="path0" d="M73.467 46.267 C 73.320 46.413,73.200 52.235,73.200 59.205 C 73.200 70.932,73.146 71.925,72.475 72.532 C 71.840 73.107,70.159 73.202,58.975 73.294 L 46.200 73.400 46.099 175.758 C 46.025 251.089,46.117 278.259,46.448 278.658 C 46.809 279.093,49.408 279.200,59.635 279.200 C 71.818 279.200,72.390 279.234,72.786 279.974 C 73.046 280.460,73.200 285.433,73.200 293.366 L 73.200 305.985 74.100 306.205 C 74.595 306.325,80.130 306.374,86.400 306.312 L 97.800 306.200 98.000 215.800 L 98.200 125.400 111.166 125.294 C 119.838 125.224,124.307 125.043,124.660 124.750 C 125.075 124.406,125.212 121.490,125.295 111.256 L 125.400 98.200 215.800 98.000 L 306.200 97.800 306.312 86.400 C 306.374 80.130,306.325 74.595,306.205 74.100 L 305.985 73.200 293.366 73.200 C 285.433 73.200,280.460 73.046,279.974 72.786 C 279.234 72.390,279.200 71.819,279.200 59.666 C 279.200 50.317,279.073 46.833,278.720 46.480 C 278.196 45.956,73.990 45.743,73.467 46.267 " stroke="none" fill="#5ccce4" fill-rule="evenodd"></path><path id="path1" d="M125.299 202.099 L 125.400 279.000 202.300 279.101 L 279.200 279.202 279.292 292.301 L 279.383 305.400 279.592 292.600 L 279.800 279.800 292.600 279.592 L 305.400 279.383 292.301 279.292 L 279.202 279.200 279.101 202.300 L 279.000 125.400 202.099 125.299 L 125.198 125.198 125.299 202.099 " stroke="none" fill="#e45c8c" fill-rule="evenodd"></path><path id="path2" d="M306.880 98.480 C 306.510 98.850,306.400 119.470,306.400 188.856 C 306.400 260.334,306.298 278.819,305.900 279.076 C 305.625 279.254,299.640 279.490,292.600 279.600 L 279.800 279.800 279.600 292.600 C 279.490 299.640,279.254 305.625,279.076 305.900 C 278.819 306.298,260.334 306.400,188.856 306.400 C 119.470 306.400,98.850 306.510,98.480 306.880 C 97.795 307.565,97.795 330.035,98.480 330.720 C 98.833 331.073,102.302 331.200,111.600 331.200 C 120.898 331.200,124.367 331.327,124.720 331.680 C 125.073 332.033,125.200 335.502,125.200 344.800 C 125.200 354.098,125.327 357.567,125.680 357.920 C 126.379 358.619,330.021 358.619,330.720 357.920 C 331.073 357.567,331.200 354.098,331.200 344.800 C 331.200 335.502,331.327 332.033,331.680 331.680 C 332.033 331.327,335.502 331.200,344.800 331.200 C 354.098 331.200,357.567 331.073,357.920 330.720 C 358.619 330.021,358.619 126.379,357.920 125.680 C 357.567 125.327,354.098 125.200,344.800 125.200 C 335.502 125.200,332.033 125.073,331.680 124.720 C 331.327 124.367,331.200 120.898,331.200 111.600 C 331.200 102.302,331.073 98.833,330.720 98.480 C 330.035 97.795,307.565 97.795,306.880 98.480 " stroke="none" fill="#e4b45c" fill-rule="evenodd"></path><path id="path3" d="M44.800 32.400 L 44.800 44.800 32.400 44.800 L 20.000 44.800 20.000 176.000 L 20.000 307.200 32.394 307.200 L 44.789 307.200 44.894 319.700 L 45.000 332.200 58.500 332.305 L 72.000 332.411 72.000 345.805 L 72.000 359.200 84.600 359.200 L 97.200 359.200 97.200 371.800 L 97.200 384.400 228.200 384.400 L 359.200 384.400 359.200 371.800 L 359.200 359.200 371.800 359.200 L 384.400 359.200 384.400 228.200 L 384.400 97.200 371.800 97.200 L 359.200 97.200 359.200 84.600 L 359.200 72.000 345.805 72.000 L 332.411 72.000 332.305 58.500 L 332.200 45.000 319.700 44.894 L 307.200 44.789 307.200 32.394 L 307.200 20.000 176.000 20.000 L 44.800 20.000 44.800 32.400 M278.720 46.480 C 279.073 46.833,279.200 50.317,279.200 59.666 C 279.200 71.819,279.234 72.390,279.974 72.786 C 280.460 73.046,285.433 73.200,293.366 73.200 L 305.985 73.200 306.205 74.100 C 306.325 74.595,306.374 80.130,306.312 86.400 L 306.200 97.800 215.800 98.000 L 125.400 98.200 125.295 111.256 C 125.212 121.490,125.075 124.406,124.660 124.750 C 124.307 125.043,119.838 125.224,111.166 125.294 L 98.200 125.400 98.000 215.800 L 97.800 306.200 86.400 306.312 C 80.130 306.374,74.595 306.325,74.100 306.205 L 73.200 305.985 73.200 293.366 C 73.200 285.433,73.046 280.460,72.786 279.974 C 72.390 279.234,71.818 279.200,59.635 279.200 C 49.408 279.200,46.809 279.093,46.448 278.658 C 46.117 278.259,46.025 251.089,46.099 175.758 L 46.200 73.400 58.975 73.294 C 70.159 73.202,71.840 73.107,72.475 72.532 C 73.146 71.925,73.200 70.932,73.200 59.205 C 73.200 52.235,73.320 46.413,73.467 46.267 C 73.990 45.743,278.196 45.956,278.720 46.480 M331.106 111.166 C 331.176 119.838,331.357 124.307,331.650 124.660 C 331.994 125.075,334.910 125.212,345.144 125.295 L 358.200 125.400 358.200 228.200 L 358.200 331.000 345.144 331.105 C 334.910 331.188,331.994 331.325,331.650 331.740 C 331.357 332.093,331.176 336.562,331.106 345.234 L 331.000 358.200 228.200 358.200 L 125.400 358.200 125.294 345.234 C 125.224 336.562,125.043 332.093,124.750 331.740 C 124.406 331.325,121.490 331.188,111.256 331.105 L 98.200 331.000 98.094 318.700 L 97.988 306.400 188.114 306.400 C 257.679 306.400,278.350 306.290,278.720 305.920 C 279.074 305.566,279.200 301.991,279.200 292.321 L 279.200 279.202 202.300 279.101 L 125.400 279.000 125.299 202.099 L 125.198 125.198 202.099 125.299 L 279.000 125.400 279.101 202.300 L 279.202 279.200 292.321 279.200 C 301.991 279.200,305.566 279.074,305.920 278.720 C 306.290 278.350,306.400 257.679,306.400 188.114 L 306.400 97.988 318.700 98.094 L 331.000 98.200 331.106 111.166 " stroke="none" fill="#040404" fill-rule="evenodd"></path></g></svg>